<svg width="16" height="16" viewBox="0 0 16 16" fill="none" xmlns="http://www.w3.org/2000/svg">
<g id="iconoir:github" clip-path="url(#clip0_12_34)">
<g id="Group">
<path id="Vector" d="M10.6666 14.6847V12.7713C10.6916 12.4534 10.6487 12.1339 10.5406 11.8339C10.4326 11.5338 10.2619 11.2603 10.04 11.0313C12.1333 10.798 14.3333 10.0047 14.3333 6.36466C14.3331 5.43388 13.9751 4.53879 13.3333 3.86466C13.6372 3.05033 13.6157 2.15023 13.2733 1.35133C13.2733 1.35133 12.4866 1.11799 10.6666 2.33799C9.13864 1.92388 7.52796 1.92388 5.99997 2.33799C4.17997 1.11799 3.3933 1.35133 3.3933 1.35133C3.05089 2.15023 3.0294 3.05033 3.3333 3.86466C2.68672 4.54379 2.32832 5.44697 2.3333 6.38466C2.3333 9.99799 4.5333 10.7913 6.62664 11.0513C6.4073 11.278 6.23815 11.5483 6.13018 11.8446C6.02221 12.1409 5.97784 12.4567 5.99997 12.7713V14.6847" stroke="white" stroke-width="1.5" stroke-linecap="round" stroke-linejoin="round"/>
<path id="Vector_2" d="M5.99998 13.3513C3.99998 14 2.33331 13.3513 1.33331 11.3513" stroke="white" stroke-width="1.5" stroke-linecap="round" stroke-linejoin="round"/>
</g>
</g>
<defs>
<clipPath id="clip0_12_34">
<rect width="16" height="16" fill="white"/>
</clipPath>
</defs>
</svg>
