<svg width="81" height="80" viewBox="0 0 81 80" fill="none" xmlns="http://www.w3.org/2000/svg">
<g id="logos:javascript" clip-path="url(#clip0_12_50)">
<path id="Vector" d="M0.5 0H80.5V80H0.5V0Z" fill="#F7DF1E"/>
<path id="Vector_2" d="M21.535 66.8538L27.6569 63.1488C28.8381 65.2429 29.9125 67.0147 32.4897 67.0147C34.96 67.0147 36.5178 66.0485 36.5178 62.2897V36.7279H44.0356V62.396C44.0356 70.1825 39.4712 73.7269 32.8119 73.7269C26.7978 73.7269 23.3069 70.6122 21.5347 66.8532M48.119 66.0482L54.2403 62.5041C55.8519 65.1357 57.9462 67.0688 61.6512 67.0688C64.7666 67.0688 66.7528 65.5113 66.7528 63.3632C66.7528 60.7857 64.7122 59.8725 61.2753 58.3694L59.3962 57.5632C53.9722 55.2547 50.3744 52.3547 50.3744 46.2329C50.3744 40.5941 54.6703 36.2979 61.3831 36.2979C66.1625 36.2979 69.5994 37.9628 72.0694 42.3125L66.2156 46.0719C64.9265 43.7628 63.5309 42.85 61.3828 42.85C59.1809 42.85 57.7847 44.2463 57.7847 46.0719C57.7847 48.3272 59.1809 49.2407 62.4028 50.6369L64.2822 51.4422C70.6728 54.1813 74.2706 56.9735 74.2706 63.256C74.2706 70.0229 68.9544 73.7279 61.8122 73.7279C54.8312 73.7279 50.3203 70.3985 48.1187 66.0485" fill="black"/>
</g>
<defs>
<clipPath id="clip0_12_50">
<rect width="80" height="80" fill="white" transform="translate(0.5)"/>
</clipPath>
</defs>
</svg>
