<svg width="16" height="16" viewBox="0 0 16 16" fill="none" xmlns="http://www.w3.org/2000/svg">
<g id="basil:linkedin-outline">
<path id="Vector" fill-rule="evenodd" clip-rule="evenodd" d="M3.33333 0.833328C2.8471 0.833328 2.38079 1.02648 2.03697 1.3703C1.69315 1.71412 1.5 2.18043 1.5 2.66666C1.5 3.15289 1.69315 3.61921 2.03697 3.96302C2.38079 4.30684 2.8471 4.49999 3.33333 4.49999C3.81956 4.49999 4.28588 4.30684 4.6297 3.96302C4.97351 3.61921 5.16667 3.15289 5.16667 2.66666C5.16667 2.18043 4.97351 1.71412 4.6297 1.3703C4.28588 1.02648 3.81956 0.833328 3.33333 0.833328ZM2.5 2.66666C2.5 2.44565 2.5878 2.23369 2.74408 2.07741C2.90036 1.92113 3.11232 1.83333 3.33333 1.83333C3.55435 1.83333 3.76631 1.92113 3.92259 2.07741C4.07887 2.23369 4.16667 2.44565 4.16667 2.66666C4.16667 2.88768 4.07887 3.09964 3.92259 3.25592C3.76631 3.4122 3.55435 3.49999 3.33333 3.49999C3.11232 3.49999 2.90036 3.4122 2.74408 3.25592C2.5878 3.09964 2.5 2.88768 2.5 2.66666ZM1.5 5.33333C1.5 5.20072 1.55268 5.07354 1.64645 4.97977C1.74021 4.88601 1.86739 4.83333 2 4.83333H4.66667C4.79927 4.83333 4.92645 4.88601 5.02022 4.97977C5.11399 5.07354 5.16667 5.20072 5.16667 5.33333V14C5.16667 14.1326 5.11399 14.2598 5.02022 14.3535C4.92645 14.4473 4.79927 14.5 4.66667 14.5H2C1.86739 14.5 1.74021 14.4473 1.64645 14.3535C1.55268 14.2598 1.5 14.1326 1.5 14V5.33333ZM2.5 5.83333V13.5H4.16667V5.83333H2.5ZM6.16667 5.33333C6.16667 5.20072 6.21935 5.07354 6.31311 4.97977C6.40688 4.88601 6.53406 4.83333 6.66667 4.83333H9.33333C9.46594 4.83333 9.59312 4.88601 9.68689 4.97977C9.78065 5.07354 9.83333 5.20072 9.83333 5.33333V5.62266L10.1233 5.49799C10.6233 5.28431 11.1538 5.15046 11.6953 5.10133C13.5453 4.93333 15.1667 6.38666 15.1667 8.25333V14C15.1667 14.1326 15.114 14.2598 15.0202 14.3535C14.9265 14.4473 14.7993 14.5 14.6667 14.5H12C11.8674 14.5 11.7402 14.4473 11.6464 14.3535C11.5527 14.2598 11.5 14.1326 11.5 14V9.33333C11.5 9.11232 11.4122 8.90035 11.2559 8.74407C11.0996 8.58779 10.8877 8.5 10.6667 8.5C10.4457 8.5 10.2337 8.58779 10.0774 8.74407C9.92113 8.90035 9.83333 9.11232 9.83333 9.33333V14C9.83333 14.1326 9.78065 14.2598 9.68689 14.3535C9.59312 14.4473 9.46594 14.5 9.33333 14.5H6.66667C6.53406 14.5 6.40688 14.4473 6.31311 14.3535C6.21935 14.2598 6.16667 14.1326 6.16667 14V5.33333ZM7.16667 5.83333V13.5H8.83333V9.33333C8.83333 8.8471 9.02649 8.38078 9.3703 8.03697C9.71412 7.69315 10.1804 7.5 10.6667 7.5C11.1529 7.5 11.6192 7.69315 11.963 8.03697C12.3068 8.38078 12.5 8.8471 12.5 9.33333V13.5H14.1667V8.25333C14.1667 6.98399 13.0593 5.98133 11.7867 6.09733C11.3495 6.13711 10.9212 6.24508 10.5173 6.41733L9.53067 6.84066C9.45456 6.87335 9.37153 6.88662 9.28903 6.87928C9.20653 6.87195 9.12715 6.84423 9.05801 6.79862C8.98887 6.75301 8.93215 6.69095 8.89293 6.61799C8.85372 6.54504 8.83324 6.46349 8.83333 6.38066V5.83333H7.16667Z" fill="white"/>
</g>
</svg>
