<svg width="16" height="16" viewBox="0 0 16 16" fill="none" xmlns="http://www.w3.org/2000/svg">
<g id="basil:twitter-outline">
<path id="Vector" fill-rule="evenodd" clip-rule="evenodd" d="M10.014 2.22866C10.3533 2.17066 10.7327 2.15133 11.09 2.21199C11.7265 2.31951 12.3163 2.61508 12.7833 3.06066C13.0873 3.06733 13.3867 3.00733 13.6513 2.92199C13.9071 2.83857 14.1527 2.72653 14.3833 2.58799L14.3893 2.58399C14.4853 2.52003 14.6005 2.49123 14.7153 2.50247C14.8301 2.51372 14.9375 2.56432 15.0193 2.64569C15.101 2.72706 15.1522 2.83421 15.164 2.94896C15.1757 3.06372 15.1475 3.17902 15.084 3.27533C14.946 3.48533 14.7533 3.85999 14.538 4.27999L14.4347 4.48066C14.3113 4.72066 14.1847 4.96333 14.0667 5.17133C13.9927 5.30199 13.9133 5.43466 13.8333 5.54933V5.73199C13.8415 6.82442 13.6321 7.90754 13.2172 8.91814C12.8023 9.92874 12.1902 10.8466 11.4168 11.6181C10.6433 12.3896 9.72398 12.9994 8.71234 13.4118C7.70071 13.8241 6.61707 14.0309 5.52467 14.02C3.94163 14.0214 2.39191 13.5654 1.062 12.7067C0.966946 12.6452 0.895568 12.5533 0.859545 12.4459C0.823522 12.3386 0.824987 12.2222 0.8637 12.1158C0.902414 12.0095 0.976083 11.9194 1.07266 11.8603C1.16923 11.8012 1.283 11.7767 1.39534 11.7907C2.31392 11.9005 3.24492 11.7523 4.084 11.3627C3.67462 11.1766 3.30849 10.9072 3.00892 10.5718C2.70934 10.2365 2.4829 9.84237 2.344 9.41466C2.31754 9.33278 2.31265 9.24545 2.32982 9.16113C2.34699 9.07681 2.38563 8.99834 2.442 8.93333L2.44867 8.92666C2.11026 8.62516 1.83905 8.25586 1.65264 7.84273C1.46623 7.4296 1.3688 6.98189 1.36667 6.52866V6.49399C1.36662 6.38423 1.40269 6.2775 1.46932 6.19027C1.53595 6.10304 1.62943 6.04016 1.73534 6.01133C1.50959 5.56089 1.39246 5.06384 1.39334 4.55999C1.39296 3.98877 1.54237 3.42744 1.82667 2.93199C1.86706 2.86166 1.92396 2.80221 1.99244 2.75877C2.06093 2.71533 2.13896 2.6892 2.2198 2.68264C2.30064 2.67608 2.38186 2.68928 2.45646 2.72111C2.53106 2.75293 2.5968 2.80243 2.648 2.86533C3.81413 4.30195 5.48479 5.2391 7.31867 5.48533C7.30275 4.88545 7.45408 4.29298 7.75573 3.77422C8.05738 3.25546 8.49744 2.83087 9.02667 2.54799C9.29467 2.40533 9.64934 2.29133 10.0147 2.22866H10.014ZM2.49534 7.26066C2.62479 7.62501 2.84663 7.9495 3.13913 8.20238C3.43163 8.45527 3.78477 8.62788 4.164 8.70333C4.27326 8.72509 4.37212 8.78273 4.4449 8.86708C4.51767 8.95143 4.56018 9.05767 4.5657 9.16894C4.57121 9.28021 4.53941 9.39014 4.47533 9.48127C4.41125 9.57241 4.31857 9.63953 4.212 9.67199C4.03067 9.72733 3.84467 9.76533 3.656 9.78733C3.86083 10.0515 4.12224 10.2665 4.42103 10.4165C4.71983 10.5665 5.04841 10.6476 5.38267 10.654C5.48577 10.6559 5.58575 10.6897 5.66891 10.7507C5.75207 10.8117 5.81435 10.8969 5.8472 10.9946C5.88005 11.0924 5.88187 11.1979 5.85242 11.2967C5.82296 11.3955 5.76367 11.4828 5.68267 11.5467C4.9875 12.0936 4.17965 12.4796 3.31734 12.6767C4.03125 12.9052 4.77641 13.021 5.526 13.02H5.532C6.49201 13.0301 7.44441 12.8488 8.33356 12.4867C9.22271 12.1246 10.0308 11.5889 10.7105 10.9109C11.3903 10.2329 11.9281 9.42631 12.2926 8.53813C12.6571 7.64994 12.8409 6.69802 12.8333 5.73799V5.38133C12.8332 5.25992 12.8773 5.14262 12.9573 5.05133C13.004 4.99866 13.084 4.87733 13.1973 4.67799C13.304 4.48999 13.4227 4.26333 13.546 4.02399L13.568 3.97999C13.2198 4.05836 12.8612 4.0802 12.506 4.04466C12.3859 4.03158 12.2746 3.97545 12.1927 3.88666C11.8574 3.52311 11.411 3.28113 10.9233 3.19866C10.6774 3.16387 10.4274 3.1695 10.1833 3.21533C9.94539 3.25236 9.71437 3.32495 9.498 3.43066C9.06178 3.66373 8.71526 4.03501 8.5128 4.48625C8.31034 4.9375 8.2634 5.44319 8.37934 5.92399C8.39758 5.9996 8.39794 6.07842 8.38038 6.15418C8.36282 6.22995 8.32783 6.30058 8.27819 6.36045C8.22854 6.42032 8.16562 6.46778 8.09441 6.49907C8.0232 6.53035 7.94568 6.54459 7.868 6.54066C5.81973 6.43706 3.88324 5.57515 2.43534 4.12266C2.40721 4.26696 2.39314 4.41365 2.39334 4.56066V4.56199C2.39259 4.92916 2.48264 5.29081 2.65549 5.61475C2.82833 5.93868 3.0786 6.21485 3.384 6.41866C3.47369 6.47902 3.54139 6.56683 3.57697 6.66891C3.61255 6.77099 3.61408 6.88186 3.58134 6.98489C3.5486 7.08792 3.48335 7.17756 3.39537 7.24038C3.30739 7.3032 3.20141 7.33581 3.09334 7.33333C2.89214 7.32775 2.69192 7.30386 2.49534 7.26066Z" fill="white"/>
</g>
</svg>
