<svg xmlns="http://www.w3.org/2000/svg" width="153" height="40" viewBox="0 0 153 40"><g><g><g><g><g><path fill="#2e2e2e" d="M29.233.14v39.716H.14V10.07L9.838.14zM11.001 11.26h-8.34v25.986h24.05V2.722h-15.71z"/></g></g></g><g><path fill="#2e2e2e" d="M79.654 36.36v-2.733h2.66v2.734zm-12.858.08l-3.42-10.614h2.48l2.12 7.222 2.34-7.262h2.06l2.36 7.262 2.16-7.222h2.42l-3.46 10.614h-2.16l-2.36-7.202-2.38 7.202zm-9.858-1.935c1.96 0 3.2-1.536 3.2-3.352v-.04c0-1.856-1.34-3.392-3.24-3.392-1.94 0-3.18 1.517-3.18 3.352v.04c0 1.836 1.34 3.392 3.22 3.392zm-.04 2.095c-3.22 0-5.6-2.454-5.6-5.447v-.04c0-3.013 2.4-5.507 5.64-5.507 3.24 0 5.62 2.454 5.62 5.467v.04c0 2.993-2.4 5.487-5.66 5.487zm-20.278-.24V22.395h2.28l7.5 9.657v-9.657h2.42V36.36h-2.06l-7.72-9.937v9.937zm110.02-19.154V6.671h2.42v2.375c.66-1.577 1.88-2.654 3.74-2.574v2.554h-.14c-2.12 0-3.6 1.376-3.6 4.17v4.01zm-9.998-6.006h5.42c-.16-1.556-1.08-2.773-2.68-2.773-1.48 0-2.52 1.137-2.74 2.773zm3.02 6.256c-3.06 0-5.42-2.217-5.42-5.472v-.04c0-3.016 2.14-5.492 5.16-5.492 3.36 0 5.06 2.636 5.06 5.671 0 .22-.02.44-.04.68h-7.76c.26 1.717 1.48 2.676 3.04 2.676 1.18 0 2.02-.44 2.86-1.259l1.42 1.259c-1 1.198-2.38 1.977-4.32 1.977zm-8.938-.07c-1.78 0-3.04-.778-3.04-3.093V8.746h-1.34V6.671h1.34V3.778h2.42v2.893h2.84v2.075h-2.84v5.168c0 .938.48 1.317 1.3 1.317.54 0 1.02-.12 1.5-.36v1.976c-.6.34-1.28.539-2.18.539zm-7.939 0c-1.78 0-3.04-.778-3.04-3.093V8.746h-1.34V6.671h1.34V3.778h2.42v2.893h2.84v2.075h-2.84v5.168c0 .938.48 1.317 1.3 1.317.54 0 1.02-.12 1.5-.36v1.976c-.6.34-1.28.539-2.18.539zM109.247 11.2h5.42c-.16-1.556-1.08-2.773-2.68-2.773-1.48 0-2.52 1.137-2.74 2.773zm3.02 6.256c-3.06 0-5.42-2.217-5.42-5.472v-.04c0-3.016 2.14-5.492 5.16-5.492 3.36 0 5.06 2.636 5.06 5.671 0 .22-.02.44-.04.68h-7.76c.26 1.717 1.48 2.676 3.04 2.676 1.18 0 2.02-.44 2.86-1.259l1.42 1.259c-1 1.198-2.38 1.977-4.32 1.977zm-16.478-.25V3.24h2.46v11.732h7.36v2.235zm-10.016 0V6.671h2.42v2.375c.66-1.577 1.88-2.654 3.74-2.574v2.554h-.14c-2.12 0-3.6 1.376-3.6 4.17v4.01zM75.775 11.2h5.42c-.16-1.556-1.08-2.773-2.68-2.773-1.48 0-2.52 1.137-2.74 2.773zm3.02 6.256c-3.06 0-5.42-2.217-5.42-5.472v-.04c0-3.016 2.14-5.492 5.16-5.492 3.36 0 5.06 2.636 5.06 5.671 0 .22-.02.44-.04.68h-7.76c.26 1.717 1.48 2.676 3.04 2.676 1.18 0 2.02-.44 2.86-1.259l1.42 1.259c-1 1.198-2.38 1.977-4.32 1.977zm-12.539-.16l-4.34-10.625h2.6l2.84 7.75 2.86-7.75h2.54l-4.32 10.625zm-10.558-1.945c1.96 0 3.2-1.537 3.2-3.352v-.04c0-1.856-1.34-3.392-3.24-3.392-1.94 0-3.18 1.516-3.18 3.352v.04c0 1.835 1.34 3.392 3.22 3.392zm-.04 2.105c-3.22 0-5.6-2.457-5.6-5.452v-.04c0-3.016 2.4-5.512 5.64-5.512 3.24 0 5.62 2.456 5.62 5.472v.04c0 2.995-2.4 5.492-5.66 5.492zm-12.538-.01c-4.08 0-7.12-3.173-7.12-7.183v-.04C36 6.253 38.98 3 43.22 3c2.58 0 4.14.898 5.48 2.175L47.12 6.99C46 5.953 44.8 5.255 43.2 5.255c-2.68 0-4.62 2.194-4.62 4.928v.04c0 2.733 1.94 4.968 4.62 4.968 1.72 0 2.82-.698 4.02-1.816l1.58 1.596c-1.46 1.517-3.06 2.475-5.68 2.475z"/></g></g></g></svg>